Coordinates
version=1
nRows=8
nColumns=34
inDegrees=yes

Units are S.I. units (second, meters, Newtons, ...)
If the header above contains a line with 'inDegrees', this indicates whether rotational values are in degrees (yes) or radians (no).

endheader
time	pelvis_tilt	pelvis_list	pelvis_rotation	pelvis_tx	pelvis_ty	pelvis_tz	hip_flexion_r	hip_adduction_r	hip_rotation_r	knee_angle_r	ankle_angle_r	subtalar_angle_r	mtp_angle_r	hip_flexion_l	hip_adduction_l	hip_rotation_l	knee_angle_l	ankle_angle_l	subtalar_angle_l	mtp_angle_l	lumbar_extension	lumbar_bending	lumbar_rotation	arm_flex_r	arm_add_r	arm_rot_r	elbow_flex_r	pro_sup_r	arm_flex_l	arm_add_l	arm_rot_l	elbow_flex_l	pro_sup_l
      2.41666670	     10.09819302	      3.78975085	     -6.39704754	      0.42453700	      0.91251404	      0.10439350	     -2.68477506	      3.73652284	      8.02049514	     19.48259984	     26.84102150	     -7.32631997	      0.00000000	     35.76188082	     -8.38482904	     -2.46832293	     10.96309084	      2.43869777	     -5.84981677	      0.00000000	    -16.02851545	     -2.64618851	      5.63916175	     81.18036567	     -4.82370475	     65.13301939	    127.19170471	     94.76902356	     80.97079192	     -5.18205377	     76.06508950	    131.36003267	     88.67162598
      2.43333330	     10.02142801	      3.56602566	     -6.55905586	      0.42462686	      0.91033410	      0.10563733	     -2.38892875	      4.06996362	      8.09505901	     19.61687683	     27.43895448	     -7.90273052	      0.00000000	     35.68626782	     -8.66418514	     -1.76152074	     11.44933005	      3.00956965	     -6.22262554	      0.00000000	    -16.13876553	     -2.76836721	      5.65537335	     81.50354388	     -4.63848916	     64.79039675	    127.19862995	     94.84057533	     81.30814770	     -5.20432343	     76.03624258	    132.43453880	     88.81300033
      2.45000000	      9.99142381	      3.32324065	     -6.78514962	      0.42519691	      0.90972445	      0.10603102	     -2.10052067	      4.32199560	      8.20487252	     19.66832461	     27.89945207	     -8.31729024	      0.00000000	     35.43528917	     -8.89215282	     -1.15077618	     11.52919389	      3.23366567	     -6.31855023	      0.00000000	    -16.13564378	     -2.73227717	      5.60583156	     81.35019304	     -4.34457313	     64.84537689	    127.21731840	     94.93797407	     81.25530105	     -5.41483519	     75.85874991	    132.84725253	     88.92479068
      2.46666670	      9.96884510	      3.09587952	     -6.96013334	      0.42561939	      0.90924450	      0.10681944	     -2.02241593	      4.52640091	      8.27790107	     19.63714558	     28.29471912	     -8.64072960	      0.00000000	     35.09100345	     -9.11298052	     -0.62494779	     11.59793851	      3.59446837	     -6.41412194	      0.00000000	    -15.83253162	     -2.72152544	      6.14435599	     80.86239253	     -4.75284390	     64.85071464	    127.01133561	     95.02286895	     80.62077541	     -5.65864004	     75.68137940	    133.81953700	     89.02634992
      2.48333330	      9.82843865	      2.83142577	     -7.15735936	      0.42608710	      0.90638218	      0.10752755	     -1.64982236	      4.80042097	      8.46937787	     19.84882616	     28.98590393	     -9.06443246	      0.00000000	     34.99900934	     -9.38765069	      0.03830941	     11.93685684	      4.19877235	     -6.55956358	      0.00000000	    -15.47427673	     -2.62871593	      6.54464972	     80.54906558	     -4.95545091	     64.71924268	    127.04541318	     95.11291157	     80.13005178	     -5.84751253	     75.35309156	    134.74077956	     89.14672748
      2.50000000	      9.71401554	      2.81663365	     -7.10222046	      0.42587720	      0.90842617	      0.10866762	     -1.34329076	      4.84245563	      8.48226897	     19.94321116	     29.15820347	     -9.28369729	      0.00000000	     34.72891896	     -9.34372782	      0.68757270	     12.22200356	      4.55710180	     -6.56605810	      0.00000000	    -15.12767137	     -2.65179041	      6.95896177	     80.52768297	     -5.04994981	     64.64222504	    127.08036070	     95.15099102	     79.91314555	     -5.95300516	     75.38201072	    135.13073992	     89.22923450
      2.51666670	      9.40404577	      2.64237488	     -7.12337272	      0.42660771	      0.90756672	      0.10971044	     -1.23381802	      5.16245993	      8.73592918	     19.52993517	     29.31398298	     -9.32543437	      0.00000000	     34.69463407	     -9.50202720	      1.22832119	     12.57663975	      5.01678249	     -6.74840797	      0.00000000	    -14.47007553	     -2.58854494	      7.42954517	     80.33571554	     -5.45665995	     64.53299817	    127.22885963	     95.20760805	     79.49256344	     -5.76573352	     75.73991172	    136.02851382	     89.41493459
      2.53333330	      9.18088829	      2.63461066	     -7.09623261	      0.42502262	      0.90800264	      0.11084294	     -1.26778824	      5.36001818	      8.92094180	     19.07335618	     28.99598313	     -9.07894801	      0.00000000	     34.54120126	     -9.41941369	      1.24709537	     12.54461460	      4.90207691	     -6.66475889	      0.00000000	    -14.01953285	     -2.61058902	      7.51446659	     80.35601693	     -5.60819432	     64.48671887	    127.33701981	     95.21636219	     79.47704639	     -6.00043897	     75.91983509	    136.03771137	     89.47155342
